# Blender v2.79 (sub 0) OBJ File: 'Hood.blend'
# www.blender.org
mtllib Hood.mtl
o Plane.001
v 0.398075 3.900520 0.435669
v 0.753626 3.881700 -0.000000
v 0.985565 4.082417 0.000000
v 1.007867 4.390182 0.000000
v 0.860557 4.773242 0.000000
v 0.712951 5.058470 0.000000
v 0.529957 5.397872 0.000000
v 0.298845 5.534150 -0.011298
v 0.905467 4.409191 0.267952
v 0.958824 4.390182 -0.283936
v 0.733546 4.498563 -0.555751
v 0.254252 4.452394 -0.781967
v 0.622033 5.063864 0.241753
v 0.578537 5.072548 -0.491448
v 0.384085 5.045274 -0.746486
v 0.242652 5.000954 -0.953907
v 0.273296 5.447928 0.355010
v 0.492665 5.284277 0.299157
v 0.793379 4.775491 0.227037
v 0.761246 4.767109 -0.399655
v 0.482338 4.680147 -0.690131
v 0.250587 4.799735 -0.829429
v 0.274039 5.504560 -0.434081
v 0.477130 5.353994 -0.512799
v 0.346940 5.279099 -0.866645
v 0.890400 4.107765 0.400121
v 0.625339 4.072597 -0.642903
v 0.302261 4.048520 -0.813217
v 0.941387 4.013721 -0.329681
v 0.498752 3.857909 -0.502750
v 0.669267 3.834897 -0.347206
v 0.657718 3.998207 0.428037
v 0.948475 4.067708 0.373867
v 0.677629 3.940088 0.393380
v 0.401434 3.830856 0.413135
v 0.298114 5.509583 0.330623
v 0.508444 5.329548 0.269697
v 0.647983 5.095723 0.212197
v 0.824742 4.802443 0.203716
v 0.971171 4.415052 0.243538
v 0.577358 3.975519 0.626148
v 0.747369 4.295489 0.539907
v 0.481023 5.110303 0.651966
v 0.234259 5.256406 0.748060
v 0.398075 3.900520 0.435669
v 0.905467 4.409191 0.267952
v 0.622033 5.063864 0.241753
v 0.273296 5.447928 0.355010
v 0.492665 5.284277 0.299157
v 0.793379 4.775491 0.227037
v 0.890400 4.107765 0.400121
v 0.335943 3.978185 0.603481
v 0.732185 4.097370 0.599014
v 0.677836 4.613497 0.504285
v 0.583127 4.893180 0.560968
v 0.657718 3.998207 0.428037
v -0.398075 3.900520 0.435669
v -0.753626 3.881700 -0.000000
v -0.985565 4.082417 0.000000
v -1.007867 4.390182 0.000000
v -0.860557 4.773242 0.000000
v -0.712951 5.058470 0.000000
v -0.529957 5.397872 0.000000
v -0.298845 5.534150 -0.011298
v -0.905467 4.409191 0.267952
v -0.958824 4.390182 -0.283936
v -0.733546 4.498563 -0.555751
v -0.254252 4.452394 -0.781967
v -0.622033 5.063864 0.241753
v -0.578537 5.072548 -0.491448
v -0.384085 5.045274 -0.746486
v -0.242652 5.000954 -0.953907
v -0.273296 5.447928 0.355010
v -0.492665 5.284277 0.299157
v -0.793379 4.775491 0.227037
v -0.761246 4.767109 -0.399655
v -0.482338 4.680147 -0.690131
v -0.250587 4.799735 -0.829429
v -0.274039 5.504560 -0.434081
v -0.477130 5.353994 -0.512799
v -0.346940 5.279099 -0.866645
v -0.890400 4.107765 0.400121
v -0.625339 4.072597 -0.642903
v -0.302261 4.048520 -0.813217
v -0.941387 4.013721 -0.329681
v -0.498752 3.857909 -0.502750
v -0.669267 3.834897 -0.347206
v 0.000000 5.557846 0.348102
v -0.657718 3.998207 0.428037
v 0.000000 5.593716 0.000000
v 0.000000 5.577661 -0.397339
v 0.000000 5.441921 -0.782365
v 0.000000 5.271642 -1.010523
v 0.000000 4.932085 -1.020068
v 0.000000 4.648784 -0.809020
v 0.000000 4.428964 -0.846254
v 0.000000 4.054522 -0.862609
v 0.000000 3.821457 -0.691340
v 0.000000 3.836235 -0.426595
v 0.000000 3.799330 -0.324688
v 0.000000 3.817537 0.317080
v -0.948475 4.067708 0.373867
v -0.677629 3.940088 0.393380
v -0.401434 3.830856 0.413135
v 0.000000 3.881571 0.344344
v -0.298114 5.509583 0.330623
v -0.508444 5.329548 0.269697
v -0.647983 5.095723 0.212197
v -0.824742 4.802443 0.203716
v 0.000000 5.483306 0.368648
v -0.971171 4.415052 0.243538
v -0.577358 3.975519 0.626148
v -0.747369 4.295489 0.539907
v -0.481023 5.110303 0.651966
v -0.234259 5.256406 0.748060
v -0.398075 3.900520 0.435669
v -0.905467 4.409191 0.267952
v -0.622033 5.063864 0.241753
v -0.273296 5.447928 0.355010
v -0.492665 5.284277 0.299157
v -0.793379 4.775491 0.227037
v -0.890400 4.107765 0.400121
v -0.335943 3.978185 0.603481
v -0.732185 4.097370 0.599014
v -0.677836 4.613497 0.504285
v -0.583127 4.893180 0.560968
v -0.657718 3.998207 0.428037
v 0.000000 3.958040 0.439980
v 0.000000 3.881571 0.344344
v 0.000000 5.483306 0.368648
v 0.000000 5.304028 0.789505
v 0.000000 4.842133 -0.302956
vt 0.072303 0.233261
vt 0.154303 0.204076
vt 0.135876 0.261570
vt 0.376372 0.459732
vt 0.309448 0.413231
vt 0.450503 0.416831
vt 0.352187 0.678572
vt 0.236928 0.723503
vt 0.230725 0.642964
vt 0.419407 0.620075
vt 0.329471 0.576815
vt 0.379412 0.357178
vt 0.246885 0.360598
vt 0.322783 0.076505
vt 0.345780 0.095975
vt 0.275615 0.208382
vt 0.404788 0.149851
vt 0.359804 0.252844
vt 0.279601 0.270320
vt 0.316579 0.513550
vt 0.443964 0.234090
vt 0.098785 0.099259
vt 0.226118 0.212415
vt 0.149497 0.007213
vt 0.235322 0.502782
vt 0.113842 0.584349
vt 0.240176 0.575740
vt 0.206818 0.418946
vt 0.107535 0.488735
vt 0.109442 0.409785
vt 0.454082 0.522431
vt 0.196039 0.264153
vt 0.037528 0.650121
vt 0.119839 0.736039
vt 0.019445 0.726233
vt 0.381388 0.524420
vt 0.121144 0.651835
vt 0.066272 0.313403
vt 0.121214 0.319622
vt 0.177112 0.329690
vt 0.050442 0.506378
vt 0.044181 0.580684
vt 0.057492 0.415557
vt 0.074004 0.166147
vt 0.055457 0.230519
vt 0.080777 0.094831
vt 0.056726 0.163513
vt 0.131260 0.000132
vt 0.019471 0.647143
vt 0.030797 0.574708
vt 0.000132 0.718634
vt 0.037202 0.502389
vt 0.045809 0.411511
vt 0.049934 0.311552
vt 0.904685 0.390737
vt 0.999868 0.356389
vt 0.981380 0.436800
vt 0.902849 0.191514
vt 0.921013 0.142893
vt 0.965282 0.188516
vt 0.628439 0.367545
vt 0.573291 0.417368
vt 0.454346 0.160008
vt 0.519948 0.443995
vt 0.688801 0.000132
vt 0.757313 0.061451
vt 0.793447 0.108834
vt 0.793447 0.157707
vt 0.759917 0.196060
vt 0.702687 0.252629
vt 0.660128 0.313027
vt 0.920823 0.239180
vt 0.874586 0.446148
vt 0.957184 0.496447
vt 0.869727 0.155576
vt 0.878809 0.089325
vt 0.924526 0.319564
vt 0.999868 0.261721
vt 0.830006 0.505615
vt 0.888096 0.613971
vt 0.793711 0.552914
vt 0.809223 0.019127
vt 0.834467 0.107538
vt 0.924852 0.556997
vt 0.454082 0.348410
vt 0.832560 0.000132
vt 0.072303 0.233261
vt 0.135876 0.261570
vt 0.154303 0.204076
vt 0.376372 0.459732
vt 0.309448 0.413231
vt 0.230725 0.642964
vt 0.329471 0.576815
vt 0.379412 0.357178
vt 0.246885 0.360598
vt 0.275615 0.208382
vt 0.359804 0.252844
vt 0.279601 0.270320
vt 0.316579 0.513550
vt 0.226118 0.212415
vt 0.098785 0.099259
vt 0.235322 0.502782
vt 0.113842 0.584349
vt 0.240176 0.575740
vt 0.206818 0.418946
vt 0.109442 0.409785
vt 0.107535 0.488735
vt 0.196039 0.264153
vt 0.037528 0.650121
vt 0.381388 0.524420
vt 0.121144 0.651835
vt 0.121214 0.319622
vt 0.066272 0.313403
vt 0.177112 0.329690
vt 0.050442 0.506378
vt 0.044181 0.580684
vt 0.057492 0.415557
vt 0.074004 0.166147
vt 0.055457 0.230519
vt 0.080777 0.094831
vt 0.056726 0.163513
vt 0.019471 0.647143
vt 0.030797 0.574708
vt 0.037202 0.502389
vt 0.045809 0.411511
vt 0.049934 0.311552
vt 0.904685 0.390737
vt 0.981380 0.436800
vt 0.999868 0.356389
vt 0.902849 0.191514
vt 0.965282 0.188516
vt 0.921013 0.142893
vt 0.628439 0.367545
vt 0.573291 0.417368
vt 0.757313 0.061451
vt 0.793447 0.108834
vt 0.793447 0.157707
vt 0.759917 0.196060
vt 0.702687 0.252629
vt 0.660128 0.313027
vt 0.920823 0.239180
vt 0.874586 0.446148
vt 0.957184 0.496447
vt 0.869727 0.155576
vt 0.878809 0.089325
vt 0.924526 0.319564
vt 0.999868 0.261721
vt 0.830006 0.505615
vt 0.834467 0.107538
vt 0.924852 0.556997
vn 0.7325 -0.3674 0.5730
vn 0.4501 -0.8890 0.0840
vn 0.9158 -0.4013 0.0143
vn 0.4349 -0.3876 -0.8127
vn 0.5299 0.0416 -0.8470
vn 0.0000 -0.2158 -0.9764
vn 0.0000 0.8826 -0.4701
vn 0.0000 0.9824 -0.1869
vn 0.3764 0.8996 -0.2215
vn 0.0000 0.4472 -0.8944
vn 0.6590 0.4100 -0.6306
vn 0.2985 0.0981 -0.9493
vn 0.6511 0.1433 -0.7453
vn 0.0000 -0.9895 -0.1443
vn 0.0000 -0.9863 -0.1650
vn 0.2570 -0.8585 -0.4437
vn 0.0000 -0.8935 -0.4490
vn 0.3243 -0.3084 -0.8943
vn 0.5337 -0.2986 -0.7911
vn 0.8133 -0.0161 -0.5816
vn 0.0000 -0.2619 -0.9651
vn 0.0781 -0.7781 0.6232
vn 0.3483 -0.9014 -0.2571
vn 0.0000 -0.8669 0.4984
vn 0.8427 0.3000 -0.4469
vn 0.7440 0.6681 0.0076
vn 0.7689 0.5599 -0.3088
vn 0.8151 0.3539 -0.4585
vn 0.8786 0.4765 -0.0319
vn 0.9090 0.4131 -0.0557
vn 0.0000 -0.3118 -0.9501
vn 0.8165 -0.4477 -0.3645
vn 0.3844 0.7096 0.5904
vn 0.0000 0.9997 0.0242
vn 0.0000 0.7789 0.6271
vn 0.5583 -0.1836 -0.8090
vn 0.3626 0.9319 -0.0051
vn 0.8099 0.2385 0.5358
vn 0.9904 0.1370 -0.0167
vn 0.9181 0.1518 -0.3661
vn 0.7811 0.3875 0.4896
vn 0.7088 0.4837 0.5134
vn 0.7645 0.3768 0.5230
vn 0.3513 -0.7224 0.5956
vn 0.3847 -0.0393 0.9222
vn 0.0141 -0.3194 0.9475
vn 0.2477 -0.4322 0.8671
vn 0.0000 -0.3839 0.9233
vn 0.2639 0.2675 0.9267
vn 0.5912 0.2808 0.7560
vn 0.0000 0.2657 0.9640
vn 0.5772 0.2436 0.7794
vn 0.4331 0.2373 0.8695
vn 0.3103 0.2907 0.9051
vn 0.2032 -0.1314 0.9703
vn 0.8296 0.3320 0.4489
vn 0.8547 0.4259 0.2968
vn 0.3356 -0.1568 0.9288
vn 0.4709 -0.8655 0.1704
vn 0.7991 -0.1587 0.5798
vn 0.4028 -0.0954 0.9103
vn 0.2285 0.0042 0.9735
vn 0.0000 -0.2277 0.9737
vn 0.0000 0.0987 0.9951
vn 0.0000 -0.2153 0.9765
vn -0.2298 -0.1729 0.9577
vn 0.2018 -0.3985 0.8947
vn 0.1551 0.2639 0.9520
vn 0.0785 0.0411 0.9960
vn 0.7428 0.5904 0.3156
vn 0.0155 -0.9411 0.3377
vn 0.8024 0.2486 0.5426
vn 0.0000 0.9022 0.4312
vn 0.3856 0.8185 0.4258
vn 0.0000 0.1011 -0.9949
vn 0.0000 -0.7810 0.6245
vn -0.7325 -0.3674 0.5730
vn -0.9158 -0.4013 0.0143
vn -0.4501 -0.8890 0.0840
vn -0.4349 -0.3876 -0.8127
vn -0.5299 0.0416 -0.8470
vn -0.3764 0.8996 -0.2215
vn -0.6590 0.4100 -0.6306
vn -0.2985 0.0981 -0.9493
vn -0.6511 0.1433 -0.7453
vn -0.2570 -0.8585 -0.4437
vn -0.3243 -0.3084 -0.8943
vn -0.5337 -0.2986 -0.7911
vn -0.8133 -0.0161 -0.5816
vn -0.3483 -0.9014 -0.2571
vn -0.0781 -0.7781 0.6232
vn -0.8427 0.3000 -0.4469
vn -0.7440 0.6681 0.0076
vn -0.7689 0.5599 -0.3088
vn -0.8151 0.3539 -0.4585
vn -0.9090 0.4131 -0.0557
vn -0.8786 0.4765 -0.0319
vn -0.8165 -0.4477 -0.3645
vn -0.3844 0.7096 0.5904
vn -0.5583 -0.1836 -0.8090
vn -0.3626 0.9319 -0.0051
vn -0.9904 0.1370 -0.0167
vn -0.8099 0.2385 0.5358
vn -0.9181 0.1518 -0.3661
vn -0.7811 0.3875 0.4896
vn -0.7088 0.4837 0.5134
vn -0.7645 0.3768 0.5230
vn -0.3513 -0.7224 0.5956
vn -0.3847 -0.0393 0.9222
vn -0.0141 -0.3194 0.9475
vn -0.2477 -0.4322 0.8671
vn -0.2639 0.2675 0.9267
vn -0.5912 0.2808 0.7560
vn -0.5772 0.2436 0.7794
vn -0.4331 0.2373 0.8695
vn -0.3103 0.2907 0.9051
vn -0.2032 -0.1314 0.9703
vn -0.8547 0.4259 0.2968
vn -0.8296 0.3320 0.4489
vn -0.3356 -0.1568 0.9288
vn -0.7991 -0.1587 0.5798
vn -0.4709 -0.8655 0.1704
vn -0.4028 -0.0954 0.9103
vn -0.2285 0.0042 0.9735
vn 0.2298 -0.1729 0.9577
vn -0.2018 -0.3985 0.8947
vn -0.1551 0.2639 0.9520
vn -0.0785 0.0411 0.9960
vn -0.7428 0.5904 0.3156
vn -0.0155 -0.9411 0.3377
vn -0.8024 0.2486 0.5426
vn -0.3856 0.8185 0.4258
usemtl Material.005
s 1
f 33/1/1 2/2/2 3/3/3
f 22/4/4 21/5/5 95/6/6
f 92/7/7 91/8/8 23/9/9
f 93/10/10 92/7/7 25/11/11
f 12/12/12 21/5/5 11/13/13
f 100/14/14 99/15/15 30/16/16
f 99/15/15 98/17/17 30/16/16
f 28/18/18 27/19/19 30/16/16
f 15/20/20 21/5/5 22/4/4
f 30/16/16 98/17/17 28/18/18
f 98/17/17 97/21/21 28/18/18
f 2/2/2 35/22/22 31/23/23
f 35/22/22 101/24/24 100/14/14
f 14/25/25 21/5/5 15/20/20
f 7/26/26 14/25/25 24/27/27
f 20/28/28 6/29/29 5/30/30
f 94/31/31 22/4/4 95/6/6
f 31/23/23 100/14/14 30/16/16
f 20/28/28 11/13/13 21/5/5
f 23/9/9 25/11/11 92/7/7
f 31/23/23 27/19/19 29/32/32
f 12/12/12 27/19/19 28/18/18
f 15/20/20 24/27/27 14/25/25
f 36/33/33 90/34/34 88/35/35
f 16/36/36 93/10/10 25/11/11
f 97/21/21 12/12/12 28/18/18
f 29/32/32 2/2/2 31/23/23
f 91/8/8 8/37/37 23/9/9
f 5/30/30 40/38/38 4/39/39
f 3/3/3 10/40/40 4/39/39
f 11/13/13 29/32/32 27/19/19
f 3/3/3 40/38/38 33/1/1
f 12/12/12 95/6/6 21/5/5
f 7/26/26 38/41/41 6/29/29
f 7/26/26 36/33/33 37/42/42
f 16/36/36 15/20/20 22/4/4
f 7/26/26 23/9/9 8/37/37
f 10/40/40 5/30/30 4/39/39
f 6/29/29 39/43/43 5/30/30
f 7/26/26 8/37/37 36/33/33
f 34/44/44 35/22/22 2/2/2
f 26/45/45 34/44/44 33/1/1
f 1/46/46 34/44/44 32/47/47
f 105/48/48 35/22/22 1/46/46
f 17/49/49 37/42/42 36/33/33
f 18/50/50 38/41/41 37/42/42
f 17/49/49 88/35/35 110/51/51
f 13/52/52 39/43/43 38/41/41
f 19/53/53 40/38/38 39/43/43
f 26/45/45 40/38/38 9/54/54
f 55/55/55 50/56/56 47/57/57
f 53/58/58 56/59/59 51/60/60
f 43/61/61 44/62/62 132/63/63
f 44/62/62 131/64/64 132/63/63
f 128/65/65 52/66/66 132/63/63
f 52/66/66 41/67/67 132/63/63
f 41/67/67 53/68/58 132/63/63
f 53/68/58 42/69/68 132/63/63
f 42/69/68 54/70/69 132/63/63
f 54/70/69 55/71/55 132/63/63
f 55/71/55 43/61/61 132/63/63
f 51/60/60 42/72/68 53/58/58
f 43/73/61 47/57/57 49/74/70
f 41/75/67 45/76/71 56/59/59
f 54/77/69 46/78/72 50/56/56
f 44/79/62 130/80/73 131/81/64
f 128/82/65 45/76/71 52/83/66
f 43/73/61 48/84/74 44/79/62
f 33/1/1 34/44/44 2/2/2
f 14/25/25 20/28/28 21/5/5
f 7/26/26 6/29/29 14/25/25
f 20/28/28 14/25/25 6/29/29
f 94/31/31 16/36/36 22/4/4
f 31/23/23 35/22/22 100/14/14
f 20/28/28 10/40/40 11/13/13
f 23/9/9 24/27/27 25/11/11
f 31/23/23 30/16/16 27/19/19
f 12/12/12 11/13/13 27/19/19
f 15/20/20 25/11/11 24/27/27
f 36/33/33 8/37/37 90/34/34
f 16/36/36 94/31/31 93/10/10
f 97/21/21 96/85/75 12/12/12
f 29/32/32 3/3/3 2/2/2
f 91/8/8 90/34/34 8/37/37
f 5/30/30 39/43/43 40/38/38
f 3/3/3 29/32/32 10/40/40
f 11/13/13 10/40/40 29/32/32
f 3/3/3 4/39/39 40/38/38
f 12/12/12 96/85/75 95/6/6
f 7/26/26 37/42/42 38/41/41
f 16/36/36 25/11/11 15/20/20
f 7/26/26 24/27/27 23/9/9
f 10/40/40 20/28/28 5/30/30
f 6/29/29 38/41/41 39/43/43
f 26/45/45 32/47/47 34/44/44
f 1/46/46 35/22/22 34/44/44
f 105/48/48 101/24/24 35/22/22
f 17/49/49 18/50/50 37/42/42
f 18/50/50 13/52/52 38/41/41
f 17/49/49 36/33/33 88/35/35
f 13/52/52 19/53/53 39/43/43
f 19/53/53 9/54/54 40/38/38
f 26/45/45 33/1/1 40/38/38
f 55/55/55 54/77/69 50/56/56
f 53/58/58 41/75/67 56/59/59
f 51/60/60 46/78/72 42/72/68
f 43/73/61 55/55/55 47/57/57
f 41/75/67 52/83/66 45/76/71
f 54/77/69 42/72/68 46/78/72
f 44/79/62 48/84/74 130/80/73
f 128/82/65 129/86/76 45/76/71
f 43/73/61 49/74/70 48/84/74
f 102/87/77 59/88/78 58/89/79
f 78/90/80 95/6/6 77/91/81
f 92/7/7 79/92/82 91/8/8
f 93/10/10 81/93/83 92/7/7
f 68/94/84 67/95/85 77/91/81
f 100/14/14 86/96/86 99/15/15
f 99/15/15 86/96/86 98/17/17
f 84/97/87 86/96/86 83/98/88
f 71/99/89 78/90/80 77/91/81
f 86/96/86 84/97/87 98/17/17
f 98/17/17 84/97/87 97/21/21
f 58/89/79 87/100/90 104/101/91
f 104/101/91 100/14/14 101/24/24
f 70/102/92 71/99/89 77/91/81
f 63/103/93 80/104/94 70/102/92
f 76/105/95 61/106/96 62/107/97
f 94/31/31 95/6/6 78/90/80
f 87/100/90 86/96/86 100/14/14
f 76/105/95 77/91/81 67/95/85
f 79/92/82 92/7/7 81/93/83
f 87/100/90 85/108/98 83/98/88
f 68/94/84 84/97/87 83/98/88
f 71/99/89 70/102/92 80/104/94
f 106/109/99 88/35/35 90/34/34
f 72/110/100 81/93/83 93/10/10
f 97/21/21 84/97/87 68/94/84
f 85/108/98 87/100/90 58/89/79
f 91/8/8 79/92/82 64/111/101
f 61/106/96 60/112/102 111/113/103
f 59/88/78 60/112/102 66/114/104
f 67/95/85 83/98/88 85/108/98
f 59/88/78 102/87/77 111/113/103
f 68/94/84 77/91/81 95/6/6
f 63/103/93 62/107/97 108/115/105
f 63/103/93 107/116/106 106/109/99
f 72/110/100 78/90/80 71/99/89
f 63/103/93 64/111/101 79/92/82
f 66/114/104 60/112/102 61/106/96
f 62/107/97 61/106/96 109/117/107
f 63/103/93 106/109/99 64/111/101
f 103/118/108 58/89/79 104/101/91
f 82/119/109 102/87/77 103/118/108
f 57/120/110 89/121/111 103/118/108
f 105/48/48 57/120/110 104/101/91
f 73/122/112 106/109/99 107/116/106
f 74/123/113 107/116/106 108/115/105
f 73/122/112 110/51/51 88/35/35
f 69/124/114 108/115/105 109/117/107
f 75/125/115 109/117/107 111/113/103
f 82/119/109 65/126/116 111/113/103
f 126/127/117 118/128/118 121/129/119
f 124/130/120 122/131/121 127/132/122
f 114/133/123 132/63/63 115/134/124
f 115/134/124 132/63/63 131/64/64
f 128/65/65 132/63/63 123/135/125
f 123/135/125 132/63/63 112/136/126
f 112/136/126 132/63/63 124/137/120
f 124/137/120 132/63/63 113/138/127
f 113/138/127 132/63/63 125/139/128
f 125/139/128 132/63/63 126/140/117
f 126/140/117 132/63/63 114/133/123
f 122/131/121 124/130/120 113/141/127
f 114/142/123 120/143/129 118/128/118
f 112/144/126 127/132/122 116/145/130
f 125/146/128 121/129/119 117/147/131
f 115/148/124 131/81/64 130/80/73
f 128/82/65 123/149/125 116/145/130
f 114/142/123 115/148/124 119/150/132
f 102/87/77 58/89/79 103/118/108
f 70/102/92 77/91/81 76/105/95
f 63/103/93 70/102/92 62/107/97
f 76/105/95 62/107/97 70/102/92
f 94/31/31 78/90/80 72/110/100
f 87/100/90 100/14/14 104/101/91
f 76/105/95 67/95/85 66/114/104
f 79/92/82 81/93/83 80/104/94
f 87/100/90 83/98/88 86/96/86
f 68/94/84 83/98/88 67/95/85
f 71/99/89 80/104/94 81/93/83
f 106/109/99 90/34/34 64/111/101
f 72/110/100 93/10/10 94/31/31
f 97/21/21 68/94/84 96/85/75
f 85/108/98 58/89/79 59/88/78
f 91/8/8 64/111/101 90/34/34
f 61/106/96 111/113/103 109/117/107
f 59/88/78 66/114/104 85/108/98
f 67/95/85 85/108/98 66/114/104
f 59/88/78 111/113/103 60/112/102
f 68/94/84 95/6/6 96/85/75
f 63/103/93 108/115/105 107/116/106
f 72/110/100 71/99/89 81/93/83
f 63/103/93 79/92/82 80/104/94
f 66/114/104 61/106/96 76/105/95
f 62/107/97 109/117/107 108/115/105
f 82/119/109 103/118/108 89/121/111
f 57/120/110 103/118/108 104/101/91
f 105/48/48 104/101/91 101/24/24
f 73/122/112 107/116/106 74/123/113
f 74/123/113 108/115/105 69/124/114
f 73/122/112 88/35/35 106/109/99
f 69/124/114 109/117/107 75/125/115
f 75/125/115 111/113/103 65/126/116
f 82/119/109 111/113/103 102/87/77
f 126/127/117 121/129/119 125/146/128
f 124/130/120 127/132/122 112/144/126
f 122/131/121 113/141/127 117/147/131
f 114/142/123 118/128/118 126/127/117
f 112/144/126 116/145/130 123/149/125
f 125/146/128 117/147/131 113/141/127
f 115/148/124 130/80/73 119/150/132
f 128/82/65 116/145/130 129/86/76
f 114/142/123 119/150/132 120/143/129
